# xmcd CD database file
#
# Track frame offsets:
#	150
#	17885
#	27732
#	39745
#	51757
#	61865
#	73390
#	85847
#	93420
#	103082
#	118622
#	131555
#	141140
#	154212
#	164972
#	175170
#	183590
#	196957
#	209240
#	217757
#	227955
#	237817
#	244957
#	252198
#	259763
#	279451
#	297186
#
# Disc length: 4223 seconds
#
# Revision: 0
# Processed by: cddbd v1.5PL3 Copyright (c) Steve Scherf et al.
# Submitted via: CDex 1.51
#
DISCID=a5107d1b
DTITLE=ぱれっと - 愛Cute!キミに恋してる　オリジナルサウンドトラック
DYEAR=2004
DGENRE=Game
TTITLE0=Touch My Heart (Full Chorus Ver.)
TTITLE1=僕の妖精さんは今日も元気
TTITLE2=見上げれば、空
TTITLE3=日々太平
TTITLE4=今日は今日とて大運動会
TTITLE5=それでも時は刻む
TTITLE6=母の温もり
TTITLE7=猫と猫じゃらし
TTITLE8=祖母の日記
TTITLE9=静かな午後
TTITLE10=ぬくもり
TTITLE11=ありがとう
TTITLE12=瓶詰め妖精
TTITLE13=虚ろな瞳で佇むのは誰
TTITLE14=陽光の庭園
TTITLE15=澄み渡る空
TTITLE16=街角のパン屋さん
TTITLE17=硝子の雨
TTITLE18=暖かい場所
TTITLE19=帰れる所・・・
TTITLE20=色鮮やかな町並み
TTITLE21=Touch My Heart (Opening Ver.)
TTITLE22=Touch My Heart (Music Box Ver.)
TTITLE23=貴方にとどけ (Music Box Ver.)
TTITLE24=貴方にとどけ
TTITLE25=Touch My Heart (Karaoke Ver.)
TTITLE26=貴方にとどけ (Karaoke Ver.)
EXTD=YEAR: 2004
EXTT0=
EXTT1=
EXTT2=
EXTT3=
EXTT4=
EXTT5=
EXTT6=
EXTT7=
EXTT8=
EXTT9=
EXTT10=
EXTT11=
EXTT12=
EXTT13=
EXTT14=
EXTT15=
EXTT16=
EXTT17=
EXTT18=
EXTT19=
EXTT20=
EXTT21=
EXTT22=
EXTT23=
EXTT24=
EXTT25=
EXTT26=
PLAYORDER=
